<svg xmlns="http://www.w3.org/2000/svg" x="0px" y="0px"
width="80" height="80"
viewBox="0 0 172 172"
style=" fill:#000000;"><g fill="none" fill-rule="nonzero" stroke="none" stroke-width="1" stroke-linecap="butt" stroke-linejoin="miter" stroke-miterlimit="10" stroke-dasharray="" stroke-dashoffset="0" font-family="none" font-weight="none" font-size="none" text-anchor="none" style="mix-blend-mode: normal"><path d="M0,172v-172h172v172z" fill="none"></path><path d="M86,164.26c-43.2218,0 -78.26,-35.0382 -78.26,-78.26v0c0,-43.2218 35.0382,-78.26 78.26,-78.26h0c43.2218,0 78.26,35.0382 78.26,78.26v0c0,43.2218 -35.0382,78.26 -78.26,78.26z" fill="#ffffff"></path><g fill="#3498db"><path d="M86,30.2075c-4.43857,0 -7.97768,3.29807 -8.7243,7.525h-24.3857c-2.47502,0 -4.515,2.03998 -4.515,4.515v84.28c0,2.47502 2.03998,4.515 4.515,4.515h66.22c2.47502,0 4.515,-2.03998 4.515,-4.515v-84.28c0,-2.47502 -2.03998,-4.515 -4.515,-4.515h-24.3857c-0.74662,-4.22693 -4.28572,-7.525 -8.7243,-7.525zM86,33.2175c3.33922,0 6.02,2.68078 6.02,6.02v1.505h9.03v6.02c0,0.85244 -0.65256,1.505 -1.505,1.505h-27.09c-0.85244,0 -1.505,-0.65256 -1.505,-1.505v-6.02h9.03v-1.505c0,-3.33922 2.68078,-6.02 6.02,-6.02zM86,37.7325c-0.82893,0 -1.505,0.67607 -1.505,1.505c0,0.82893 0.67607,1.505 1.505,1.505c0.82893,0 1.505,-0.67607 1.505,-1.505c0,-0.82893 -0.67607,-1.505 -1.505,-1.505zM52.89,40.7425h15.05v6.02c0,2.47502 2.03998,4.515 4.515,4.515h27.09c2.47502,0 4.515,-2.03998 4.515,-4.515v-6.02h15.05c0.85244,0 1.505,0.65256 1.505,1.505v84.28c0,0.85244 -0.65256,1.505 -1.505,1.505h-66.22c-0.85244,0 -1.505,-0.65256 -1.505,-1.505v-84.28c0,-0.85244 0.65256,-1.505 1.505,-1.505zM70.95,61.8125c-4.13875,0 -7.525,3.38625 -7.525,7.525c0,2.28689 1.0582,4.321 2.68078,5.70842c-3.37449,1.75779 -5.69078,5.28514 -5.69078,9.34158h3.01c0,-4.17402 3.35098,-7.525 7.525,-7.525c4.17402,0 7.525,3.35098 7.525,7.525h3.01c0,-4.05644 -2.31629,-7.58379 -5.69078,-9.34158c1.62258,-1.38742 2.68078,-3.42152 2.68078,-5.70842c0,-4.13875 -3.38625,-7.525 -7.525,-7.525zM87.505,63.3175v3.01h21.07v-3.01zM70.95,64.8225c2.51029,0 4.515,2.00471 4.515,4.515c0,2.51029 -2.00471,4.515 -4.515,4.515c-2.51029,0 -4.515,-2.00471 -4.515,-4.515c0,-2.51029 2.00471,-4.515 4.515,-4.515zM87.505,72.3475v3.01h15.05v-3.01zM87.505,81.3775v3.01h21.07v-3.01zM61.92,94.9225c-0.82893,0 -1.505,0.67607 -1.505,1.505c0,0.82893 0.67607,1.505 1.505,1.505c0.82893,0 1.505,-0.67607 1.505,-1.505c0,-0.82893 -0.67607,-1.505 -1.505,-1.505zM67.94,94.9225c-0.82893,0 -1.505,0.67607 -1.505,1.505c0,0.82893 0.67607,1.505 1.505,1.505c0.82893,0 1.505,-0.67607 1.505,-1.505c0,-0.82893 -0.67607,-1.505 -1.505,-1.505zM73.96,94.9225c-0.82893,0 -1.505,0.67607 -1.505,1.505c0,0.82893 0.67607,1.505 1.505,1.505c0.82893,0 1.505,-0.67607 1.505,-1.505c0,-0.82893 -0.67607,-1.505 -1.505,-1.505zM79.98,94.9225c-0.82893,0 -1.505,0.67607 -1.505,1.505c0,0.82893 0.67607,1.505 1.505,1.505c0.82893,0 1.505,-0.67607 1.505,-1.505c0,-0.82893 -0.67607,-1.505 -1.505,-1.505zM86,94.9225c-0.82893,0 -1.505,0.67607 -1.505,1.505c0,0.82893 0.67607,1.505 1.505,1.505c0.82893,0 1.505,-0.67607 1.505,-1.505c0,-0.82893 -0.67607,-1.505 -1.505,-1.505zM92.02,94.9225c-0.82893,0 -1.505,0.67607 -1.505,1.505c0,0.82893 0.67607,1.505 1.505,1.505c0.82893,0 1.505,-0.67607 1.505,-1.505c0,-0.82893 -0.67607,-1.505 -1.505,-1.505zM98.04,94.9225c-0.82893,0 -1.505,0.67607 -1.505,1.505c0,0.82893 0.67607,1.505 1.505,1.505c0.82893,0 1.505,-0.67607 1.505,-1.505c0,-0.82893 -0.67607,-1.505 -1.505,-1.505zM104.06,94.9225c-0.82893,0 -1.505,0.67607 -1.505,1.505c0,0.82893 0.67607,1.505 1.505,1.505c0.82893,0 1.505,-0.67607 1.505,-1.505c0,-0.82893 -0.67607,-1.505 -1.505,-1.505zM110.08,94.9225c-0.82893,0 -1.505,0.67607 -1.505,1.505c0,0.82893 0.67607,1.505 1.505,1.505c0.82893,0 1.505,-0.67607 1.505,-1.505c0,-0.82893 -0.67607,-1.505 -1.505,-1.505zM61.92,103.9525c-0.82893,0 -1.505,0.67607 -1.505,1.505c0,0.82893 0.67607,1.505 1.505,1.505c0.82893,0 1.505,-0.67607 1.505,-1.505c0,-0.82893 -0.67607,-1.505 -1.505,-1.505zM67.94,103.9525c-0.82893,0 -1.505,0.67607 -1.505,1.505c0,0.82893 0.67607,1.505 1.505,1.505c0.82893,0 1.505,-0.67607 1.505,-1.505c0,-0.82893 -0.67607,-1.505 -1.505,-1.505zM73.96,103.9525c-0.82893,0 -1.505,0.67607 -1.505,1.505c0,0.82893 0.67607,1.505 1.505,1.505c0.82893,0 1.505,-0.67607 1.505,-1.505c0,-0.82893 -0.67607,-1.505 -1.505,-1.505zM79.98,103.9525c-0.82893,0 -1.505,0.67607 -1.505,1.505c0,0.82893 0.67607,1.505 1.505,1.505c0.82893,0 1.505,-0.67607 1.505,-1.505c0,-0.82893 -0.67607,-1.505 -1.505,-1.505zM86,103.9525c-0.82893,0 -1.505,0.67607 -1.505,1.505c0,0.82893 0.67607,1.505 1.505,1.505c0.82893,0 1.505,-0.67607 1.505,-1.505c0,-0.82893 -0.67607,-1.505 -1.505,-1.505zM92.02,103.9525c-0.82893,0 -1.505,0.67607 -1.505,1.505c0,0.82893 0.67607,1.505 1.505,1.505c0.82893,0 1.505,-0.67607 1.505,-1.505c0,-0.82893 -0.67607,-1.505 -1.505,-1.505zM98.04,103.9525c-0.82893,0 -1.505,0.67607 -1.505,1.505c0,0.82893 0.67607,1.505 1.505,1.505c0.82893,0 1.505,-0.67607 1.505,-1.505c0,-0.82893 -0.67607,-1.505 -1.505,-1.505zM61.92,112.9825c-0.82893,0 -1.505,0.67607 -1.505,1.505c0,0.82893 0.67607,1.505 1.505,1.505c0.82893,0 1.505,-0.67607 1.505,-1.505c0,-0.82893 -0.67607,-1.505 -1.505,-1.505zM67.94,112.9825c-0.82893,0 -1.505,0.67607 -1.505,1.505c0,0.82893 0.67607,1.505 1.505,1.505c0.82893,0 1.505,-0.67607 1.505,-1.505c0,-0.82893 -0.67607,-1.505 -1.505,-1.505zM73.96,112.9825c-0.82893,0 -1.505,0.67607 -1.505,1.505c0,0.82893 0.67607,1.505 1.505,1.505c0.82893,0 1.505,-0.67607 1.505,-1.505c0,-0.82893 -0.67607,-1.505 -1.505,-1.505zM79.98,112.9825c-0.82893,0 -1.505,0.67607 -1.505,1.505c0,0.82893 0.67607,1.505 1.505,1.505c0.82893,0 1.505,-0.67607 1.505,-1.505c0,-0.82893 -0.67607,-1.505 -1.505,-1.505zM86,112.9825c-0.82893,0 -1.505,0.67607 -1.505,1.505c0,0.82893 0.67607,1.505 1.505,1.505c0.82893,0 1.505,-0.67607 1.505,-1.505c0,-0.82893 -0.67607,-1.505 -1.505,-1.505zM92.02,112.9825c-0.82893,0 -1.505,0.67607 -1.505,1.505c0,0.82893 0.67607,1.505 1.505,1.505c0.82893,0 1.505,-0.67607 1.505,-1.505c0,-0.82893 -0.67607,-1.505 -1.505,-1.505zM98.04,112.9825c-0.82893,0 -1.505,0.67607 -1.505,1.505c0,0.82893 0.67607,1.505 1.505,1.505c0.82893,0 1.505,-0.67607 1.505,-1.505c0,-0.82893 -0.67607,-1.505 -1.505,-1.505zM104.06,112.9825c-0.82893,0 -1.505,0.67607 -1.505,1.505c0,0.82893 0.67607,1.505 1.505,1.505c0.82893,0 1.505,-0.67607 1.505,-1.505c0,-0.82893 -0.67607,-1.505 -1.505,-1.505zM110.08,112.9825c-0.82893,0 -1.505,0.67607 -1.505,1.505c0,0.82893 0.67607,1.505 1.505,1.505c0.82893,0 1.505,-0.67607 1.505,-1.505c0,-0.82893 -0.67607,-1.505 -1.505,-1.505z"></path></g></g></svg>